# xmcd
# Track frame offsets:
# 150
# 12019
# 29572
# 41317
# 55957
# 69130
# 81256
# 95929
# 115945
# 135648
# 150936
#
# Disc length: 2217 seconds
# Revision: 0
# Processed by: cddbd v1.5.2PL0 Copyright (c) Steve Scherf et al.
# Submitted via: VisiTrax 2.10.2.252 - For more info visit www.synapsa.com
#
DISCID=8408a70b
DTITLE=Telge Blues - Telge Blues
DYEAR=1900
DGENRE=Blues
TTITLE0=I want somebody
TTITLE1=No title
TTITLE2=Wish me well
TTITLE3=My time to go
TTITLE4=Chittlin´con carne
TTITLE5=Take a little walk with me
TTITLE6=Act like you love me
TTITLE7=Mean disposition
TTITLE8=Hard road
TTITLE9=I wish you would
TTITLE10=Checkin´up
EXTD=
EXTT0=
EXTT1=
EXTT2=
EXTT3=
EXTT4=
EXTT5=
EXTT6=
EXTT7=
EXTT8=
EXTT9=
EXTT10=
PLAYORDER=
